<?xml version="1.0" encoding="UTF-8" standalone="no"?>
<svg
   xmlns:dc="http://purl.org/dc/elements/1.1/"
   xmlns:cc="http://creativecommons.org/ns#"
   xmlns:rdf="http://www.w3.org/1999/02/22-rdf-syntax-ns#"
   xmlns:svg="http://www.w3.org/2000/svg"
   xmlns="http://www.w3.org/2000/svg"
   xmlns:sodipodi="http://sodipodi.sourceforge.net/DTD/sodipodi-0.dtd"
   xmlns:inkscape="http://www.inkscape.org/namespaces/inkscape"
   version="1.1"
   id="svg10"
   width="210.39999"
   height="83.199997"
   viewBox="0 0 210.39999 83.199997"
   sodipodi:docname="crest.svg"
   inkscape:version="1.0.2-2 (e86c870879, 2021-01-15)">
  <metadata
     id="metadata16">
    <rdf:RDF>
      <cc:Work
         rdf:about="">
        <dc:format>image/svg+xml</dc:format>
        <dc:type
           rdf:resource="http://purl.org/dc/dcmitype/StillImage" />
        <dc:title></dc:title>
      </cc:Work>
    </rdf:RDF>
  </metadata>
  <defs
     id="defs14" />
  <sodipodi:namedview
     pagecolor="#ffffff"
     bordercolor="#666666"
     borderopacity="1"
     objecttolerance="10"
     gridtolerance="10"
     guidetolerance="10"
     inkscape:pageopacity="0"
     inkscape:pageshadow="2"
     inkscape:window-width="1280"
     inkscape:window-height="881"
     id="namedview12"
     showgrid="false"
     inkscape:zoom="4.0684412"
     inkscape:cx="132.85187"
     inkscape:cy="41.599998"
     inkscape:window-x="2391"
     inkscape:window-y="-9"
     inkscape:window-maximized="1"
     inkscape:current-layer="g18" />
  <g
     inkscape:groupmode="layer"
     inkscape:label="Image"
     id="g18">
    <path
       style="fill:#000000;stroke-width:0.8"
       d="m 25.922429,59.034874 c 0,-1.29355 0.350968,-1.54251 1.610822,-1.14265 1.417673,0.44995 1.585542,0.19262 1.4,-2.14609 -0.187024,-2.35739 0.01494,-2.65735 1.789178,-2.65735 1.31881,0 2.272476,0.62444 2.8,1.83338 0.44,1.00836 1.62131,2.04023 2.625134,2.29304 1.003824,0.25281 14.34856,0.28159 29.65498,0.064 21.05455,-0.29936 28.24025,-0.65199 29.51559,-1.44846 1.37754,-0.86028 2.09686,-0.86544 3.93438,-0.0282 2.270867,1.03468 7.872467,1.31793 46.669907,2.3599 12.49725,0.33564 19.49854,0.8163 19.32,1.32639 -0.154,0.44 -0.62662,0.70246 -1.05028,0.58325 -0.42365,-0.11922 -14.87765,-0.16097 -32.12,-0.0928 -17.24234,0.0682 -32.789717,0.1235 -34.549717,0.12291 -3.80947,-10e-4 -40.35761,-0.89847 -55.44921,-1.36121 -8.684517,-0.26628 -10.729724,-0.11672 -11.085591,0.81065 -0.240007,0.62545 -1.477859,1.13718 -2.750784,1.13718 -1.806222,0 -2.314409,-0.36316 -2.314409,-1.65391 z m 7.2,-2.2221 c 0,-0.3718 -0.68426,-1.29525 -1.520578,-2.05211 -1.140333,-1.03199 -1.671028,-1.13267 -2.12222,-0.40263 -0.351938,0.56945 0.01059,1.42115 0.873481,2.05212 1.683207,1.23079 2.769317,1.38869 2.769317,0.40262 z m 101.070401,-6.12399 c -2.60683,-3.1186 -3.41979,-3.6 -6.07954,-3.6 -8.42291,0 -14.19815,-8.187821 -10.36166,-14.69019 1.47659,-2.502637 1.51553,-2.918241 0.41993,-4.482429 -1.18462,-1.691291 -1.26076,-1.638999 -4.0079,2.752887 -1.90503,3.045593 -2.65361,5.043267 -2.3414,6.248328 0.79491,3.068254 8.77042,12.911124 11.48285,14.171404 1.42047,0.66 2.59047,1.47205 2.6,1.80455 0.01,0.3325 -2.68269,0.52403 -5.98269,0.42563 -5.73861,-0.17113 -7.80265,-1.10856 -4.4,-1.99838 2.03889,-0.53318 2.01671,-1.21065 -0.10178,-3.10781 -0.93598,-0.83819 -2.84762,-3.21767 -4.24809,-5.28773 l -2.54629,-3.763742 -4.97685,5.963742 c -5.149387,6.17051 -7.173947,7.17315 -9.081617,4.49759 -1.96512,-2.75616 -8.98992,-10.533851 -9.51415,-10.533851 -0.2878,0 -2.57724,3.240001 -5.08765,7.200001 l -4.56436,7.2 -3.3396,-0.0562 c -1.83678,-0.0309 -4.04032,-0.33044 -4.89676,-0.66559 -1.44217,-0.56437 -1.41264,-0.64803 0.4,-1.13285 1.07644,-0.28792 2.67716,-0.53528 3.55716,-0.5497 1.11737,-0.0183 3.12824,-2.3098 6.66646,-7.59687 l 5.06646,-7.570648 -2.92438,-4.814059 c -1.60842,-2.647733 -3.16833,-4.787404 -3.46646,-4.754826 -0.29815,0.03258 -2.1615,2.102579 -4.14078,4.6 -2.99638,3.780772 -3.61545,5.15058 -3.69877,8.184245 -0.0885,3.222228 0.1657,3.796008 2.1987,4.962798 2.43001,1.39463 3.12485,3.79373 1.09877,3.79373 -0.66,0 -1.2,-0.5513 -1.2,-1.22511 0,-1.74986 -2.45565,-2.47318 -3.51569,-1.03555 -1.23354,1.67293 -4.04179,3.06066 -6.19363,3.06066 -0.99798,0 -3.00293,1.15186 -4.45544,2.55968 -2.4801,2.40381 -2.80254,2.50125 -5.29488,1.6 -1.45968,-0.52783 -3.438402,-0.95968 -4.397163,-0.95968 -0.958761,0 -1.743202,-0.33574 -1.743202,-0.74609 0,-1.07171 2.747597,-1.79094 4.931965,-1.29104 1.05362,0.24113 2.55041,-0.0975 3.43322,-0.77666 1.54391,-1.1878 1.54113,-1.22103 -0.20457,-2.44376 -2.10032,-1.47112 -4.284005,-5.40895 -3.82177,-6.891781 0.18013,-0.577872 0.53369,-1.997805 0.78567,-3.155409 0.30182,-1.386583 1.41648,-2.559494 3.26682,-3.437534 2.22482,-1.055747 2.80867,-1.798118 2.80867,-3.571276 0,-1.231162 0.65834,-2.834271 1.46299,-3.562466 2.77489,-2.511243 6.53701,-1.189549 6.53701,2.296558 0,1.793145 -3.04118,5.179451 -4.65156,5.179451 -1.51419,0 -1.09695,2.817625 0.65156,4.4 1.36094,1.231634 1.6,1.261967 1.6,0.203011 0,-0.684733 1.24261,-1.978129 2.76136,-2.874214 1.66054,-0.979742 4.29165,-4.031648 6.6,-7.655556 2.11125,-3.314472 4.33427,-6.223082 4.94004,-6.463578 1.2433,-0.493604 3.29074,0.920227 3.3138,2.288294 0.0261,1.549372 4.79312,8.591324 5.51419,8.145684 0.37665,-0.232784 1.45578,-2.063412 2.39809,-4.068063 0.94229,-2.004652 2.05384,-3.434331 2.47011,-3.177064 0.41627,0.257268 1.50085,2.149695 2.41018,4.205394 1.73403,3.920058 3.74559,6.596092 4.95825,6.596092 0.39492,0 1.81305,-2.339999 3.151407,-5.199999 1.33836,-2.86 2.66944,-5.199356 2.95797,-5.19857 0.28853,7.87e-4 1.54765,1.620787 2.79805,3.6 1.25041,1.979214 2.60377,3.59857 3.00747,3.59857 0.40371,0 1.88792,-2.34 3.29825,-5.2 2.21687,-4.495587 2.85878,-5.2 4.73862,-5.2 1.4406,0 2.33869,0.51768 2.66127,1.53403 0.61857,1.948939 3.52041,5.66597 4.42336,5.66597 0.37746,0 0.80133,-0.773235 0.94193,-1.718298 0.36069,-2.424379 2.64668,-3.721983 4.50856,-2.559216 0.80215,0.500948 2.40189,0.730463 3.555,0.510034 4.32134,-0.826077 8.01045,5.834828 4.93494,8.910336 -1.80809,1.808088 -2.97538,1.596903 -8.76827,-1.586336 -2.84602,-1.563913 -5.17459,-2.618018 -5.17459,-2.342456 0,0.915791 4.28787,7.94107 6.7358,11.036002 2.21207,2.79672 2.49767,2.93353 3.43833,1.64709 0.56423,-0.77163 1.02587,-2.23416 1.02587,-3.250061 0,-2.297734 1.26201,-2.42598 1.84733,-0.187725 0.23866,0.912653 1.18065,1.854636 2.0933,2.093306 2.55699,0.66866 2.05171,2.4278 -0.58613,2.04064 -1.36271,-0.2 -2.63589,0.14081 -3.23848,0.8669 -0.81914,0.987 -0.54573,1.70585 1.56177,4.10615 2.12824,2.42395 2.92328,2.82875 4.76232,2.42483 3.37888,-0.74213 3.70838,1.06128 0.44316,2.42557 -4.18017,1.74659 -4.91298,1.53095 -8.21286,-2.41676 z m -68.668437,-4.91625 c 1.06319,-1.06318 1.11263,-1.44536 0.25715,-1.98776 -1.59545,-1.01154 -1.96046,-0.87095 -3.38555,1.30401 -1.24347,1.89779 -1.23065,2 0.25085,2 0.85872,0 2.15362,-0.59231 2.87755,-1.31625 z m -6.22519,-2.62926 1.77677,-2.62216 -2.14441,-2.916165 c -1.17943,-1.603891 -2.24677,-3.063958 -2.37187,-3.244594 -0.1251,-0.180636 -0.94966,0.32516 -1.83236,1.12399 -1.97317,1.785695 -2.14409,6.478629 -0.33027,9.068229 1.57734,2.25197 2.62544,1.95065 4.90214,-1.4093 z m 42.955727,-1.85449 c 2.45317,-2.750001 4.46192,-5.230118 4.4639,-5.511373 0.002,-0.281256 -0.64929,-1.31766 -1.44728,-2.303122 l -1.45087,-1.791749 -3.07363,4.278274 -3.073627,4.278273 -4.24762,-4.673984 -4.24761,-4.673985 -0.9455,2.075142 c -1.05087,2.306407 -1.24921,1.932477 4.8387,9.122524 1.95591,2.31 3.81878,4.2 4.13971,4.2 0.32093,0 2.59065,-2.25 5.043827,-5 z m 26.86749,3.54889 c 0,-0.76882 -6.86388,-11.223809 -8.48241,-12.920319 -0.96443,-1.010887 -1.11759,-0.65649 -1.11759,2.585952 0,3.341198 0.38356,4.157688 3.46287,7.371427 3.10536,3.24094 6.13713,4.70464 6.13713,2.96294 z m -61.599987,-3.74889 c 0,-0.66 -0.32149,-1.200001 -0.71441,-1.200001 -0.39293,0 -0.92163,0.540001 -1.17489,1.200001 -0.2805,0.73097 -0.001,1.2 0.7144,1.2 0.6462,0 1.1749,-0.54 1.1749,-1.2 z M 136.72242,30.375972 c 0,-3.015579 -1.7442,-4.663515 -4.01405,-3.792492 -1.35788,0.521066 -1.35319,0.607437 0.0913,1.678595 1.2638,0.937189 1.36072,1.395018 0.56989,2.691737 -1.13137,1.855087 -0.52505,2.690087 1.71999,2.368718 1.27692,-0.182785 1.63292,-0.825194 1.63292,-2.946558 z m -74.831887,0.351243 c 1.27635,-1.537909 0.7528,-3.95472 -0.92679,-4.278178 -1.52605,-0.293892 -4.25113,3.329433 -3.46306,4.604566 0.74858,1.211213 3.2693,1.023796 4.38985,-0.326388 z m 68.031887,-1.445994 c 0,-0.994159 -0.72,-2.25721 -1.6,-2.806779 -1.34557,-0.840325 -1.6,-0.798955 -1.6,0.260156 0,1.705558 1.47704,4.354186 2.42815,4.354186 0.42452,0 0.77185,-0.813404 0.77185,-1.807563 z m -21.80023,20.111413 c -1.88202,-1.05324 -1.78093,-3.10385 0.15302,-3.10385 1.91328,0 2.74672,1.20688 1.89028,2.73726 -0.46675,0.83402 -1.02808,0.93473 -2.0433,0.36659 z m -24.126917,-0.58599 c -0.23188,-0.37518 0.0827,-1.36518 0.69892,-2.2 0.86444,-1.17097 1.33994,-1.30161 2.0806,-0.57163 0.52805,0.52042 0.74359,1.51042 0.47897,2.2 -0.5145,1.34077 -2.56124,1.69982 -3.25849,0.57163 z M 74.455763,36.95545 c -0.29333,-0.293333 -0.53333,-1.193333 -0.53333,-2 0,-1.674761 2.85787,-2.065239 3.41548,-0.466667 0.76712,2.199181 -1.34338,4.005437 -2.88215,2.466667 z M 139.23401,36.9337 c -0.95613,-0.956122 -0.51657,-2.644915 0.68841,-2.644915 0.66,0 1.2,0.518754 1.2,1.152787 0,1.336515 -1.14182,2.238725 -1.88841,1.492131 z M 96.072423,24.972117 c -1.23238,-1.232387 -0.51792,-3.483333 1.10564,-3.483333 1.24442,0 1.59215,0.431522 1.4,1.737337 -0.26548,1.80424 -1.55136,2.700273 -2.50564,1.745996 z"
       id="path22" />
  </g>
</svg>
